<svg xmlns="http://www.w3.org/2000/svg" xmlns:xlink="http://www.w3.org/1999/xlink" viewBox="0,0,256,256" width="50px" height="50px" fill-rule="nonzero"><g fill="#ffffff" fill-rule="nonzero" stroke="none" stroke-width="1" stroke-linecap="butt" stroke-linejoin="miter" stroke-miterlimit="10" stroke-dasharray="" stroke-dashoffset="0" font-family="none" font-weight="none" font-size="none" text-anchor="none" style="mix-blend-mode: normal"><g transform="scale(5.12,5.12)"><path d="M8.01367,7.0293c-0.25977,0.00414 -0.50774,0.10921 -0.69141,0.29297c-4.52276,4.5238 -7.32227,10.78053 -7.32227,17.67773c0,6.89721 2.7995,13.15393 7.32227,17.67773c0.39053,0.39037 1.02353,0.39037 1.41406,0l2.83398,-2.83398c0.39037,-0.39053 0.39037,-1.02353 0,-1.41406c-3.44165,-3.4426 -5.57031,-8.18688 -5.57031,-13.42969c0,-5.24281 2.12979,-9.98621 5.57227,-13.42773c0.39037,-0.39053 0.39037,-1.02353 0,-1.41406l-2.83594,-2.83594c-0.19132,-0.19141 -0.45205,-0.29711 -0.72266,-0.29297zM41.95703,7.0293c-0.26045,0.00364 -0.50921,0.10875 -0.69336,0.29297l-2.83594,2.83594c-0.39037,0.39053 -0.39037,1.02353 0,1.41406c3.44247,3.44152 5.57227,8.18492 5.57227,13.42773c0,5.24281 -2.12979,9.98621 -5.57227,13.42773c-0.39037,0.39053 -0.39037,1.02353 0,1.41406l2.83594,2.83594c0.39053,0.39037 1.02353,0.39037 1.41406,0c4.52391,-4.52287 7.32227,-10.78053 7.32227,-17.67773c0,-6.89721 -2.79951,-13.15393 -7.32227,-17.67773c-0.19085,-0.19092 -0.45077,-0.29658 -0.7207,-0.29297zM8.09766,9.51172l1.42188,1.42188c-3.3926,3.73047 -5.51953,8.64158 -5.51953,14.06641c0,5.42471 2.12608,10.33717 5.51758,14.06836l-1.41992,1.41992c-3.75264,-4.09374 -6.09766,-9.49322 -6.09766,-15.48828c0,-5.99506 2.34502,-11.39454 6.09766,-15.48828zM41.90234,9.51172c3.75264,4.09374 6.09766,9.49322 6.09766,15.48828c0,5.99506 -2.3443,11.39544 -6.09766,15.48828l-1.42187,-1.42187c3.3926,-3.73047 5.51953,-8.64158 5.51953,-14.06641c0,-5.42482 -2.12694,-10.33594 -5.51953,-14.06641zM14.38281,13.39844c-0.25977,0.00414 -0.50774,0.10921 -0.69141,0.29297c-2.89531,2.89638 -4.69141,6.90241 -4.69141,11.30859c0,4.40618 1.79609,8.41221 4.69141,11.30859c0.39053,0.39037 1.02353,0.39037 1.41406,0l2.82617,-2.82617c0.39037,-0.39053 0.39037,-1.02353 0,-1.41406c-1.81174,-1.81265 -2.93164,-4.3066 -2.93164,-7.06836c0,-2.76176 1.1199,-5.25571 2.93164,-7.06836c0.39037,-0.39053 0.39037,-1.02353 0,-1.41406l-2.82617,-2.82617c-0.19132,-0.19141 -0.45205,-0.29711 -0.72266,-0.29297zM35.58789,13.39844c-0.26045,0.00364 -0.50921,0.10874 -0.69336,0.29297l-2.82617,2.82617c-0.39037,0.39053 -0.39037,1.02353 0,1.41406c1.81174,1.81265 2.93164,4.3066 2.93164,7.06836c0,2.76176 -1.1199,5.25571 -2.93164,7.06836c-0.39037,0.39053 -0.39037,1.02353 0,1.41406l2.82617,2.82617c0.39053,0.39037 1.02353,0.39037 1.41406,0c2.89531,-2.89638 4.69141,-6.90241 4.69141,-11.30859c0,-4.40618 -1.79609,-8.41221 -4.69141,-11.30859c-0.19085,-0.19092 -0.45077,-0.29658 -0.7207,-0.29297zM14.4668,15.88086l1.48047,1.48047c-1.7625,2.08959 -2.94727,4.70002 -2.94727,7.63867c0,2.93865 1.18476,5.54908 2.94727,7.63867l-1.48047,1.48047c-2.13083,-2.45781 -3.4668,-5.61641 -3.4668,-9.11914c0,-3.50273 1.33597,-6.66133 3.4668,-9.11914zM35.5332,15.88086c2.13083,2.45781 3.4668,5.61641 3.4668,9.11914c0,3.50273 -1.33597,6.66133 -3.4668,9.11914l-1.48047,-1.48047c1.7625,-2.08959 2.94727,-4.70002 2.94727,-7.63867c0,-2.93865 -1.18476,-5.54908 -2.94727,-7.63867zM25,18c-3.866,0 -7,3.134 -7,7c0,3.866 3.134,7 7,7c3.866,0 7,-3.134 7,-7c0,-3.866 -3.134,-7 -7,-7zM25,20c2.757,0 5,2.243 5,5c0,2.757 -2.243,5 -5,5c-2.757,0 -5,-2.243 -5,-5c0,-2.757 2.243,-5 5,-5z"></path></g></g></svg>